<svg xmlns="http://www.w3.org/2000/svg" xmlns:xlink="http://www.w3.org/1999/xlink" viewBox="0 0 358.59 240.91"><defs><style>.cls-1{isolation:isolate;}.cls-2{fill:#e1f4f7;}.cls-3{fill:#71b5c2;}.cls-4{fill:#80c8d4;}.cls-5{fill:#1f2947;}.cls-40,.cls-6,.cls-8{fill:#28365d;}.cls-7{fill:#202b4a;}.cls-13,.cls-19,.cls-27,.cls-28,.cls-29,.cls-30,.cls-39,.cls-8{mix-blend-mode:screen;}.cls-13,.cls-16,.cls-19,.cls-20,.cls-27,.cls-28,.cls-29,.cls-30,.cls-32,.cls-35,.cls-36,.cls-39,.cls-40,.cls-45,.cls-8{opacity:0.5;}.cls-9{fill:#911e1d;}.cls-10{fill:#ff4846;}.cls-11{fill:#bf2726;}.cls-12,.cls-13{fill:#f5ad49;}.cls-14{fill:#f5cc93;}.cls-15,.cls-16{fill:#eb923f;}.cls-16,.cls-20,.cls-32,.cls-35,.cls-36,.cls-40,.cls-45{mix-blend-mode:multiply;}.cls-17{fill:#1a233d;}.cls-18{fill:#f58b49;}.cls-21,.cls-22{fill:#fff;}.cls-22{font-size:11.21px;font-family:Montserrat-SemiBold, Montserrat;font-weight:600;}.cls-23{letter-spacing:-0.01em;}.cls-24{letter-spacing:0em;}.cls-25{fill:#3a8794;}.cls-26{fill:#e3e3e3;}.cls-27{fill:url(#Degradado_sin_nombre_3);}.cls-28{fill:url(#Degradado_sin_nombre_3-2);}.cls-29{fill:url(#Degradado_sin_nombre_3-3);}.cls-30{fill:url(#Degradado_sin_nombre_3-4);}.cls-31,.cls-32{fill:#e8a56d;}.cls-33{fill:#212d4d;}.cls-34,.cls-35{fill:#ebaf7f;}.cls-36{fill:#801a19;}.cls-37{fill:#941c1b;}.cls-38{fill:#e48855;}.cls-39{fill:#4a5c91;}.cls-41{fill:#435a9c;}.cls-42{fill:#d67d4b;}.cls-43{fill:#e9a770;}.cls-44,.cls-45{fill:#5e2b13;}</style><linearGradient id="Degradado_sin_nombre_3" x1="129.36" y1="56.58" x2="235.03" y2="56.58" gradientUnits="userSpaceOnUse"><stop offset="0" stop-color="#71b5c2" stop-opacity="0"/><stop offset="0.59" stop-color="#fff"/><stop offset="0.9" stop-color="#71b5c2" stop-opacity="0"/></linearGradient><linearGradient id="Degradado_sin_nombre_3-2" x1="129.36" y1="111.03" x2="255.03" y2="111.03" xlink:href="#Degradado_sin_nombre_3"/><linearGradient id="Degradado_sin_nombre_3-3" x1="418.5" y1="313.34" x2="542.84" y2="313.34" xlink:href="#Degradado_sin_nombre_3"/><linearGradient id="Degradado_sin_nombre_3-4" x1="510.59" y1="361.17" x2="542.84" y2="361.17" xlink:href="#Degradado_sin_nombre_3"/></defs><g class="cls-1"><g id="OBJECTS"><path class="cls-2" d="M619.25,380.16c8.09-12.22,12.7-26.68,16.65-40.92,7.38-26.56,13.25-54.3,9.15-81.56s-20-54.18-45.46-64.72c-20.34-8.41-43.81-5.4-64.47,2.21S495.7,214.67,476,224.42s-41.34,17.5-63.3,15.85c-17.4-1.31-33.77-8.41-50.72-12.56s-36.24-4.9-50.46,5.22c-12.65,9-18.63,24.78-21.41,40.06A145.81,145.81,0,0,0,315.2,383.33Z" transform="translate(-287.81 -142.43)"/><path class="cls-2" d="M304,213.52c.43,4,2.89,8,6.71,9.28,3.61,1.2,7.51-.15,11.16-1.19a70.58,70.58,0,0,1,26.06-2.4c3.59.35,7.32.95,10.74-.21,5.12-1.75,8.31-7.46,7.94-12.86s-3.81-10.31-8.33-13.3-10-4.27-15.4-4.59C328,187.36,301.94,194.41,304,213.52Z" transform="translate(-287.81 -142.43)"/><path class="cls-3" d="M531.12,342.23c-.68-8.3,1.13-17.16,6.69-23.36,2.86-3.18,6.59-5.55,9.13-9,3.82-5.17,4.43-12.06,3.87-18.46s-2.13-12.72-2.16-19.15,1.8-13.3,6.77-17.38c2.84-2.33,6.58-3.66,8.73-6.64s2.23-6.78,2.88-10.33,2.38-7.46,5.87-8.41c4.41-1.19,8.46,3.21,9.7,7.61s.94,9.21,2.84,13.37c1.7,3.68,4.93,6.41,7.18,9.79A21,21,0,0,1,595.89,275c-1.09,7.12-5.75,13.2-7.53,20.17-2,7.66-.29,15.71,0,23.61.44,13.79-3.83,28.09-13.48,37.95a38.69,38.69,0,0,1-21.25,11,33.22,33.22,0,0,1-11.93-.2c-5-1-5.06-3.77-6.61-8.34A70.67,70.67,0,0,1,531.12,342.23Z" transform="translate(-287.81 -142.43)"/><path class="cls-4" d="M438.9,237.65c-1-6.09-3.95-12.12-9.09-15.56-2.63-1.76-5.75-2.79-8.2-4.8-3.69-3-5.39-7.85-6.16-12.56s-.79-9.53-1.95-14.16-3.73-9.23-8-11.25c-2.47-1.16-5.4-1.43-7.49-3.18s-2.84-4.46-4-6.9-3.08-4.93-5.75-5c-3.39-.05-5.5,3.86-5.59,7.25s1,6.79.4,10.12c-.54,3-2.37,5.51-3.37,8.35a15.65,15.65,0,0,0,.35,11.21c2.09,4.92,6.55,8.44,9.1,13.12,2.8,5.15,3.08,11.24,4.34,17,2.21,10,7.89,19.49,16.63,24.81a28.64,28.64,0,0,0,17.28,4A24.67,24.67,0,0,0,436,257.8c3.39-1.64,2.94-3.63,3.22-7.2A52.94,52.94,0,0,0,438.9,237.65Z" transform="translate(-287.81 -142.43)"/><path class="cls-4" d="M523.43,295.77q17.82-40.11,37.8-79.2c5,15.18,3,32.13-3.66,46.68A65.47,65.47,0,0,1,523.43,295.77Z" transform="translate(-287.81 -142.43)"/><path class="cls-5" d="M402.61,251.22a.93.93,0,0,1-.93-.93V239.85a10.35,10.35,0,0,0-10.34-10.34h-1.91a10.35,10.35,0,0,0-10.34,10.34v10.44a.94.94,0,0,1-1.87,0V239.85a12.23,12.23,0,0,1,12.21-12.21h1.91a12.22,12.22,0,0,1,12.2,12.21v10.44A.93.93,0,0,1,402.61,251.22Z" transform="translate(-287.81 -142.43)"/><path class="cls-6" d="M396.74,251.22a.94.94,0,0,1-.94-.93V239.85a10.35,10.35,0,0,0-10.34-10.34h-1.9a10.35,10.35,0,0,0-10.34,10.34v10.44a.94.94,0,0,1-1.87,0V239.85a12.22,12.22,0,0,1,12.21-12.21h1.9a12.22,12.22,0,0,1,12.21,12.21v10.44A.93.93,0,0,1,396.74,251.22Z" transform="translate(-287.81 -142.43)"/><polygon class="cls-7" points="122.98 162.62 130.69 162.62 126.88 105.57 120.83 105.57 122.98 162.62"/><polygon class="cls-6" points="122.98 162.62 126.56 158.88 130.69 162.62 122.98 162.62"/><polygon class="cls-6" points="126.56 158.88 123.87 105.57 126.88 105.57 130.69 162.62 126.56 158.88"/><polygon class="cls-6" points="122.98 162.62 68.33 162.62 70.48 105.57 120.84 105.57 122.75 156.61 122.98 162.62"/><path class="cls-8" d="M410.79,305.05H356.14L358.29,248h4.59a64.49,64.49,0,0,0,6,24.79,48.58,48.58,0,0,0,18.59,20.81,39.27,39.27,0,0,0,23.1,5.45Z" transform="translate(-287.81 -142.43)"/><path class="cls-9" d="M365.33,261.8a.76.76,0,0,1-.76-.75v-8.39a8.31,8.31,0,0,0-8.3-8.31h-1.54a8.31,8.31,0,0,0-8.3,8.31v8.39a.76.76,0,0,1-1.51,0v-8.39a9.82,9.82,0,0,1,9.81-9.81h1.54a9.82,9.82,0,0,1,9.81,9.81v8.39A.76.76,0,0,1,365.33,261.8Z" transform="translate(-287.81 -142.43)"/><path class="cls-10" d="M360.61,261.8a.75.75,0,0,1-.75-.75v-8.39a8.32,8.32,0,0,0-8.31-8.31H350a8.31,8.31,0,0,0-8.3,8.31v8.39a.76.76,0,0,1-1.51,0v-8.39a9.83,9.83,0,0,1,9.81-9.81h1.54a9.82,9.82,0,0,1,9.81,9.81v8.39A.76.76,0,0,1,360.61,261.8Z" transform="translate(-287.81 -142.43)"/><polygon class="cls-11" points="84.09 162.62 90.29 162.62 87.22 116.78 82.36 116.78 84.09 162.62"/><polygon class="cls-9" points="84.09 162.62 86.96 159.62 90.29 162.62 84.09 162.62"/><polygon class="cls-10" points="86.96 159.62 84.81 116.78 87.22 116.78 90.29 162.62 86.96 159.62"/><polygon class="cls-10" points="84.09 162.62 40.18 162.62 41.91 116.78 82.37 116.78 83.91 157.79 84.09 162.62"/><path class="cls-8" d="M371.9,305.05H328l1.73-45.85h3.68a51.74,51.74,0,0,0,4.82,19.92,39,39,0,0,0,14.93,16.72,31.59,31.59,0,0,0,18.57,4.38Z" transform="translate(-287.81 -142.43)"/><rect class="cls-12" x="32.07" y="162.62" width="78.58" height="75.98"/><rect class="cls-13" x="32.07" y="162.62" width="3.1" height="75.98"/><rect class="cls-14" x="66.22" y="162.62" width="10.28" height="9.94"/><rect class="cls-15" x="36.28" y="217.42" width="38.81" height="2.94"/><rect class="cls-15" x="36.28" y="228.24" width="26.8" height="2.94"/><rect class="cls-15" x="36.28" y="222.83" width="20.36" height="2.94"/><rect class="cls-15" x="57.84" y="222.83" width="26.8" height="2.94"/><rect class="cls-15" x="110.65" y="162.62" width="28.63" height="75.99"/><path class="cls-16" d="M427.09,374.19V381H398.46v-76h5.75c-.54,9.21-1,18.46-.14,27.64.91,9.43,3.35,18.87,8.38,26.9A46.38,46.38,0,0,0,427.09,374.19Z" transform="translate(-287.81 -142.43)"/><rect class="cls-6" x="125.62" width="133.14" height="238.61" rx="11.69"/><path class="cls-4" d="M542.84,154.12V369.35a8,8,0,0,1-8,7.95H425.12a7.9,7.9,0,0,1-6.62-3.58,7.75,7.75,0,0,1-1.33-4.37V154.12a8,8,0,0,1,7.95-8H534.88A8,8,0,0,1,542.84,154.12Z" transform="translate(-287.81 -142.43)"/><rect class="cls-6" x="173.28" y="2.03" width="37.82" height="4.89"/><rect class="cls-6" x="146.5" y="57.39" width="92.78" height="46.93"/><rect class="cls-17" x="150.47" y="91.9" width="84.85" height="5.15"/><rect class="cls-12" x="149.66" y="62.59" width="25.73" height="24.84"/><rect class="cls-18" x="180.02" y="62.59" width="25.73" height="24.84"/><rect class="cls-10" x="210.39" y="62.59" width="25.73" height="24.84"/><g class="cls-19"><rect class="cls-12" x="149.66" y="62.59" width="25.73" height="3.24"/><rect class="cls-18" x="180.02" y="62.59" width="25.73" height="3.24"/><rect class="cls-10" x="210.39" y="62.59" width="25.73" height="3.24"/></g><g class="cls-20"><rect class="cls-12" x="149.66" y="80.85" width="25.73" height="6.58"/><rect class="cls-18" x="180.02" y="80.85" width="25.73" height="6.58"/><rect class="cls-10" x="210.39" y="80.85" width="25.73" height="6.58"/></g><rect class="cls-6" x="155.49" y="110.08" width="74.8" height="13.65"/><path class="cls-21" d="M458.58,258.43c0,1.37-1,2.21-2.65,2.21h-1.4v1.79h-1.15v-6.21h2.55C457.57,256.22,458.58,257.05,458.58,258.43Zm-1.16,0c0-.78-.53-1.23-1.54-1.23h-1.35v2.46h1.35C456.89,259.66,457.42,259.21,457.42,258.43Z" transform="translate(-287.81 -142.43)"/><path class="cls-21" d="M463.8,262.43l-1.27-1.82h-1.64v1.81h-1.16v-6.21h2.56c1.63,0,2.65.83,2.65,2.21a2,2,0,0,1-1.33,2l1.43,2Zm-1.56-5.23h-1.35v2.47h1.35c1,0,1.53-.46,1.53-1.24S463.25,257.2,462.24,257.2Z" transform="translate(-287.81 -142.43)"/><path class="cls-21" d="M470.89,261.46v1h-4.66v-6.21h4.53v1h-3.38v1.61h3v.95h-3v1.71Z" transform="translate(-287.81 -142.43)"/><path class="cls-21" d="M471.65,259.5h2.44v.93h-2.44Z" transform="translate(-287.81 -142.43)"/><path class="cls-21" d="M475,259.33a3.35,3.35,0,1,1,3.34,3.19A3.18,3.18,0,0,1,475,259.33Zm5.53,0a2.19,2.19,0,1,0-2.19,2.18A2.13,2.13,0,0,0,480.55,259.33Z" transform="translate(-287.81 -142.43)"/><path class="cls-21" d="M487,262.43l-1.27-1.82h-1.64v1.81h-1.15v-6.21h2.55c1.64,0,2.65.83,2.65,2.21a2,2,0,0,1-1.32,2l1.43,2Zm-1.56-5.23h-1.35v2.47h1.35c1,0,1.54-.46,1.54-1.24S486.45,257.2,485.44,257.2Z" transform="translate(-287.81 -142.43)"/><path class="cls-21" d="M489.43,256.22h2.71a3.12,3.12,0,1,1,0,6.21h-2.71Zm2.66,5.24a2.13,2.13,0,1,0,0-4.26h-1.51v4.26Z" transform="translate(-287.81 -142.43)"/><path class="cls-21" d="M501.42,261.46v1h-4.66v-6.21h4.54v1h-3.38v1.61h3v.95h-3v1.71Z" transform="translate(-287.81 -142.43)"/><path class="cls-21" d="M506.78,262.43l-1.27-1.82h-1.64v1.81h-1.16v-6.21h2.56c1.63,0,2.64.83,2.64,2.21a2,2,0,0,1-1.32,2l1.43,2Zm-1.56-5.23h-1.35v2.47h1.35c1,0,1.53-.46,1.53-1.24S506.23,257.2,505.22,257.2Z" transform="translate(-287.81 -142.43)"/><text class="cls-22" transform="translate(140.57 142.55)">$<tspan class="cls-23" x="7.05" y="0">0.</tspan><tspan class="cls-24" x="17.07" y="0">00</tspan></text><rect class="cls-3" x="140.57" y="151.34" width="62.72" height="5.01"/><rect class="cls-3" x="140.57" y="160.28" width="62.72" height="5.01"/><rect class="cls-6" x="148.74" y="177.15" width="52.18" height="26.4"/><rect class="cls-17" x="150.98" y="196.56" width="47.72" height="2.89"/><rect class="cls-12" x="150.52" y="180.07" width="14.47" height="13.97"/><rect class="cls-18" x="167.6" y="180.07" width="14.47" height="13.97"/><rect class="cls-10" x="184.68" y="180.07" width="14.47" height="13.97"/><g class="cls-19"><rect class="cls-12" x="150.52" y="180.07" width="14.47" height="1.82"/><rect class="cls-18" x="167.6" y="180.07" width="14.47" height="1.82"/><rect class="cls-10" x="184.68" y="180.07" width="14.47" height="1.82"/></g><g class="cls-20"><rect class="cls-12" x="150.52" y="190.35" width="14.47" height="3.7"/><rect class="cls-18" x="167.6" y="190.35" width="14.47" height="3.7"/><rect class="cls-10" x="184.68" y="190.35" width="14.47" height="3.7"/></g><path class="cls-21" d="M499.32,333.48h-2.86v2.82h-1.73v-2.82h-2.85v-1.62h2.85V329h1.73v2.83h2.86Z" transform="translate(-287.81 -142.43)"/><rect class="cls-25" x="217.78" y="188.62" width="19.25" height="13.11" rx="0.83"/><rect class="cls-25" x="223.78" y="186.15" width="7.26" height="4.94" rx="0.31"/><path class="cls-6" d="M518.57,329.4l-.39.06a19,19,0,0,1-5.93,0l-.38-.06a1.52,1.52,0,0,1-1.27-1.5V317.62a1.52,1.52,0,0,1,1.28-1.5l.5-.07a18.65,18.65,0,0,1,5.68,0l.49.07a1.52,1.52,0,0,1,1.29,1.5V327.9A1.52,1.52,0,0,1,518.57,329.4Z" transform="translate(-287.81 -142.43)"/><path class="cls-18" d="M506.44,342.71V332.42a.53.53,0,0,1,.53-.53h16.5a.53.53,0,0,1,.53.53v10.29a.53.53,0,0,1-.6.52l-4-.56a31.17,31.17,0,0,0-8.3,0l-4,.56A.53.53,0,0,1,506.44,342.71Z" transform="translate(-287.81 -142.43)"/><rect class="cls-21" x="139.23" y="23.91" width="12.57" height="1.27"/><rect class="cls-21" x="139.23" y="27.2" width="12.57" height="1.27"/><rect class="cls-21" x="139.23" y="30.5" width="12.57" height="1.27"/><path class="cls-21" d="M528.51,176.12H450.09a5.85,5.85,0,0,1-5.85-5.85h0a5.85,5.85,0,0,1,5.85-5.85h78.42a5.85,5.85,0,0,1,5.85,5.85h0A5.85,5.85,0,0,1,528.51,176.12Z" transform="translate(-287.81 -142.43)"/><path class="cls-6" d="M451.34,173.2a3.45,3.45,0,1,1,3.45-3.45A3.46,3.46,0,0,1,451.34,173.2Zm0-6a2.52,2.52,0,1,0,2.52,2.52A2.52,2.52,0,0,0,451.34,167.23Z" transform="translate(-287.81 -142.43)"/><rect class="cls-6" x="454.71" y="170.97" width="0.93" height="3.78" transform="translate(-276.71 230.1) rotate(-45)"/><path class="cls-26" d="M494.65,172.73H461.36a2.56,2.56,0,0,1-2.56-2.56h0a2.56,2.56,0,0,1,2.56-2.56h33.29a2.55,2.55,0,0,1,2.56,2.56h0A2.56,2.56,0,0,1,494.65,172.73Z" transform="translate(-287.81 -142.43)"/><path class="cls-26" d="M516.44,172.73H501.65a2.57,2.57,0,0,1-2.57-2.56h0a2.56,2.56,0,0,1,2.57-2.56h14.79a2.56,2.56,0,0,1,2.57,2.56h0A2.57,2.57,0,0,1,516.44,172.73Z" transform="translate(-287.81 -142.43)"/><polygon class="cls-27" points="235.03 3.74 129.36 109.41 129.36 74.4 200.01 3.74 235.03 3.74"/><polygon class="cls-28" points="255.03 37.19 255.03 59.19 129.36 184.87 129.36 162.85 255.03 37.19"/><path class="cls-29" d="M542.84,249.38v44.18L459.1,377.3h-34a7.9,7.9,0,0,1-6.62-3.58Z" transform="translate(-287.81 -142.43)"/><path class="cls-30" d="M542.84,345.05v24.3a8,8,0,0,1-8,7.95H510.59Z" transform="translate(-287.81 -142.43)"/><path class="cls-31" d="M579.62,365.47,576,367.72,572.29,370l-23.2-39.74L540,314.56a15.16,15.16,0,0,1-1.62-11.35l4-15.92,2-7.82c3.67,1.39,7.48,2.46,11.2,3.52l11.15,3.17A236.39,236.39,0,0,1,556,307.67C576.7,340.74,579.62,365.47,579.62,365.47Z" transform="translate(-287.81 -142.43)"/><path class="cls-32" d="M579.62,365.47,576,367.72l-1.17-1.54-1.84-19.13-19.3-39.46,7.4-15.5-18.73-4.8,2-7.82c3.67,1.39,7.48,2.46,11.2,3.52l11.15,3.17A236.39,236.39,0,0,1,556,307.67C576.7,340.74,579.62,365.47,579.62,365.47Z" transform="translate(-287.81 -142.43)"/><path class="cls-33" d="M584.53,368.87a17.63,17.63,0,0,0-2.3-3.27l-3.53-5.27c-3.13,4.28-9.37,4.59-9.37,4.59s1.85,3.74,2.21,4.61c.28.66-2.46,5.51-4.43,8.45a14.64,14.64,0,0,1-2.71,1.2,1.21,1.21,0,0,0-.86,1.85h4.08l17.64-10.15A6.9,6.9,0,0,0,584.53,368.87Z" transform="translate(-287.81 -142.43)"/><path class="cls-34" d="M590.79,310.79c2.44,33.61-3.9,55.65-5.82,61.42-.34,1-.54,1.5-.54,1.5l-8.3-.18-3-79.12-.24-6.46c7.12,2,14.25,4,21.41,5.89C592.63,303.83,590.79,310.79,590.79,310.79Z" transform="translate(-287.81 -142.43)"/><path class="cls-35" d="M590.79,310.79c2.44,33.61-3.9,55.65-5.82,61.42l-1.33-.39,4.61-60.65c1.54-1.9,2.75-11.32,2.75-11.32l-17.82-5.44-.24-6.46c7.12,2,14.25,4,21.41,5.89C592.63,303.83,590.79,310.79,590.79,310.79Z" transform="translate(-287.81 -142.43)"/><path class="cls-6" d="M575.93,367.92s5.41,2.84,10.13.7l.41,6.32s.84,3.83,0,6.09h-22a1.2,1.2,0,0,1,.86-1.85c1.64-.36,10.12-5.2,10.24-6.15S575.93,367.92,575.93,367.92Z" transform="translate(-287.81 -142.43)"/><path class="cls-10" d="M595.08,298.05l-19.38-4.76-33.49-8.24,12.59-51.38,1.07-4.37h34.66s6.56,11.78,7.39,24.28S595.08,298.05,595.08,298.05Z" transform="translate(-287.81 -142.43)"/><path class="cls-36" d="M595.08,298.05l-19.38-4.76-4.52-14.92c-12.52-9.19-9.19-32-9.19-32l5,11.87L565,246c8.52,10,20.84,11.22,20.84,11.22l1.32-23.79c-8.91,2.75-26.83.88-32.37.21l1.07-4.37h34.66s6.56,11.78,7.39,24.28S595.08,298.05,595.08,298.05Z" transform="translate(-287.81 -142.43)"/><path class="cls-37" d="M589.31,232.24a133.41,133.41,0,0,1,2.51,16c.53,5.39.84,10.8.88,16.21s-.11,10.84-.58,16.23c-.18,2.7-.51,5.39-.82,8.08s-.81,5.35-1.21,8c.71-5.37,1.35-10.74,1.67-16.13s.52-10.8.47-16.2-.32-10.81-.77-16.19A158.15,158.15,0,0,0,589.31,232.24Z" transform="translate(-287.81 -142.43)"/><path class="cls-37" d="M565.86,248.27a35.4,35.4,0,0,0,4.87,7.79,34.79,34.79,0,0,0,6.73,6.26,25.64,25.64,0,0,1-11.6-14Z" transform="translate(-287.81 -142.43)"/><path class="cls-37" d="M564.08,251.25a48.76,48.76,0,0,0,1.18,6.6,45.49,45.49,0,0,0,2.09,6.36,44.55,44.55,0,0,0,3,6,48.45,48.45,0,0,0,3.78,5.55A36.84,36.84,0,0,1,570,270.4a39.44,39.44,0,0,1-5.09-12.46A36.1,36.1,0,0,1,564.08,251.25Z" transform="translate(-287.81 -142.43)"/><path class="cls-38" d="M550.74,202.78c-1.75-.7-3.58-1.45-5.34-2.34-3,5.84-6.06,11.85-6.06,12.95,0,5.17,7,7.57,7,7.57l10-4.33,3.14-4.6-.71-6.85A38.56,38.56,0,0,1,550.74,202.78Z" transform="translate(-287.81 -142.43)"/><path class="cls-6" d="M565.69,181.91l-3.8,3.82-2.15,19.45c-5.59,1.53-12-1.42-14.49-2.81-.72-.39-1.13-.65-1.13-.65s5.31-11.34,6.32-13.42,4.47-5.5,5.54-5.67c.49-.09,2.62-.25,4.75-.41Z" transform="translate(-287.81 -142.43)"/><path class="cls-39" d="M560.73,182.22c-7.31,2.6-14.26,17.41-15.48,20.15-.72-.39-1.13-.65-1.13-.65s5.31-11.34,6.32-13.42,4.47-5.5,5.54-5.67C556.47,182.54,558.6,182.38,560.73,182.22Z" transform="translate(-287.81 -142.43)"/><path class="cls-34" d="M563.25,182.18a4.82,4.82,0,0,1-1.43,3.34c-.22,2.15-.51,5,0,5.47,1.37,1.23,7.93-.31,9.41-.7,3.29-.86,4.54-2.36,6-5.37.43-.91.87-1.79,1.31-2.66q-1.21-.18-2.4-.3l-2.81-15.11-10.09,1.88,2.45,13.18C564.82,182,564,182.08,563.25,182.18Z" transform="translate(-287.81 -142.43)"/><path class="cls-38" d="M565,178.29l.35,1.89a8,8,0,0,0,2.87-1,10.48,10.48,0,0,0,3.43-3.25,16,16,0,0,0,2.18-6.3l-.25-1.35a15.34,15.34,0,0,1-2.08,5.74,10.59,10.59,0,0,1-3.43,3.25A8,8,0,0,1,565,178.29Z" transform="translate(-287.81 -142.43)"/><path class="cls-6" d="M592.71,231.76s-22.89,3.82-38.65,0l4.62-10.62-2.3-10.77-1.93-9a28.19,28.19,0,0,1-.39-11.61c0-.06,0-.12,0-.17a9.51,9.51,0,0,1,8.28-7.34l3.31-.35s-2.66,5.15,0,7.22S576.49,182,576.49,182s8.38,1.34,10.51,2.13l-1.38,35.15-.07,1.69Z" transform="translate(-287.81 -142.43)"/><path class="cls-40" d="M592.71,231.76s-22.89,3.82-38.65,0l4.62-10.62-2.3-10.77c3.16,2.53,13.36,9.52,29.24,8.9l-.07,1.69Z" transform="translate(-287.81 -142.43)"/><path class="cls-6" d="M592.71,207.68a3.85,3.85,0,0,1-.8.52l-.47.22c-1.86.79-6,1.75-14.3.31l-.65-.12-2-18,2-8.65s4.33.46,7.78,1.21h0a13.65,13.65,0,0,1,3.58,1.15C590.33,185.78,592.71,207.68,592.71,207.68Z" transform="translate(-287.81 -142.43)"/><path class="cls-39" d="M592.71,207.68a3.85,3.85,0,0,1-.8.52l-.47.22c-.83-4.83-3.18-18.26-4.16-21.48a7.4,7.4,0,0,0-3-3.74,13.65,13.65,0,0,1,3.58,1.15C590.33,185.78,592.71,207.68,592.71,207.68Z" transform="translate(-287.81 -142.43)"/><path class="cls-41" d="M577.14,208.73l-.66-.07s0,0,0,0h0c-.43-2.54-.74-5.1-1-7.66-.13-1.28-.28-2.56-.38-3.84s-.2-2.57-.25-3.86c.24,1.27.42,2.54.6,3.82s.32,2.55.48,3.83c.28,2.56.54,5.12.67,7.7l0,0Z" transform="translate(-287.81 -142.43)"/><path class="cls-41" d="M554.06,189.76c-.14,2.72-.44,5.41-.63,8.1-.06.67-.12,1.35-.12,2a4.84,4.84,0,0,0,.48,1.87c.49,1.26,1,2.5,1.55,3.75a39.82,39.82,0,0,1-1.88-3.61,10,10,0,0,1-.39-.95,2.56,2.56,0,0,1-.19-1.06c0-.69,0-1.37.08-2.05A81.27,81.27,0,0,1,554.06,189.76Z" transform="translate(-287.81 -142.43)"/><path class="cls-41" d="M564.36,182a18.28,18.28,0,0,0-.93,3.25,9.42,9.42,0,0,0-.12,3.3,3.26,3.26,0,0,0,1.76,2.52,4.26,4.26,0,0,0,3.14.15,14.69,14.69,0,0,0,5.51-3.65,33.57,33.57,0,0,0,2.33-2.44c.75-.84,1.47-1.71,2.15-2.61a33.66,33.66,0,0,1-4.23,5.31,19.56,19.56,0,0,1-2.57,2.24,10.52,10.52,0,0,1-3.06,1.6,4.77,4.77,0,0,1-3.46-.21A3.58,3.58,0,0,1,563,188.6,12.56,12.56,0,0,1,564.36,182Z" transform="translate(-287.81 -142.43)"/><path class="cls-4" d="M555.72,221.14H547a1.21,1.21,0,0,1-1.18-.9L541.71,205a1.22,1.22,0,0,1,1.18-1.54h8.74a1.23,1.23,0,0,1,1.18.91l4.09,15.23A1.22,1.22,0,0,1,555.72,221.14Z" transform="translate(-287.81 -142.43)"/><path class="cls-34" d="M552.41,211.47c-.53-.53-5.36,2.35-5.51,2s3.88-2.32,3.25-3-6.34,2.56-6.34,2.56l-.63-2.61s-.84-.21-1,0,.14,1.75.14,1.75l0,0a3,3,0,0,0-.81,4.46,9.07,9.07,0,0,0,3.8,2.65.62.62,0,0,0,.56-.07c.74-.53,1.41-1,1.41-1s4.47-1.23,4.33-2c-.06-.33-3.82,0-3.82,0s4.14-1.56,4.59-2.08-.23-1.18-.23-1.18S552.93,212,552.41,211.47Z" transform="translate(-287.81 -142.43)"/><path class="cls-42" d="M549.22,214.43l.3-.15a12.82,12.82,0,0,0,2.1-1.44,12.49,12.49,0,0,0-2.33,1l-.49.3.17.13Z" transform="translate(-287.81 -142.43)"/><path class="cls-42" d="M543.18,210.36a2.11,2.11,0,0,0-.7-.09.26.26,0,0,0-.24.12.74.74,0,0,0,0,.31,9.78,9.78,0,0,0,.25,1.38.15.15,0,0,1-.08.17h0a2.49,2.49,0,0,0-1.2,1.87,3.47,3.47,0,0,0,.05,1.16,4.12,4.12,0,0,0,.49,1.07,7.69,7.69,0,0,0,1.66,1.76,6,6,0,0,0,2.18,1.16,5,5,0,0,1-2.35-.91,6.56,6.56,0,0,1-1.87-1.77,4.4,4.4,0,0,1-.56-1.2,3.73,3.73,0,0,1,0-1.33,2.68,2.68,0,0,1,1.53-2.11l-.1.18a7.64,7.64,0,0,1-.13-1.44.82.82,0,0,1,.09-.39.4.4,0,0,1,.38-.15A1.88,1.88,0,0,1,543.18,210.36Z" transform="translate(-287.81 -142.43)"/><path class="cls-34" d="M590.53,228.38c-4.15,7.09-31.52-4.29-34.3-5.47l-.11,0-.14-.07a17.54,17.54,0,0,1-3.72-2.48s-4.46-1.23-4.32-2c.06-.32,3.81,0,3.81,0s-4.14-1.56-4.59-2.08.24-1.18.24-1.18-.83-.87-.31-1.41,5.34,2.35,5.5,2-3.88-2.31-3.25-3,6.35,2.56,6.35,2.56l-.63-2.4s.84-.22,1,0,1.12,1.54,1.12,1.54a7.48,7.48,0,0,1,2.55,2.22,4.69,4.69,0,0,1,.58,1.1l18.52,2.28s-.59-3.44-1.27-8.07c-.14-1-.29-2-.43-3.1,9.05,1.58,13.2.28,14.77-.53.09,1.15.18,2.29.23,3.42C592.55,218.88,592.2,225.51,590.53,228.38Z" transform="translate(-287.81 -142.43)"/><path class="cls-35" d="M592.14,211.62c-2.51.87-7.34,1.82-14.57.21-.14-1-.29-2-.43-3.1,9.05,1.58,13.2.28,14.77-.53C592,209.35,592.09,210.49,592.14,211.62Z" transform="translate(-287.81 -142.43)"/><path class="cls-42" d="M578.83,219.91a9.38,9.38,0,0,1,3.84,1.59,8.38,8.38,0,0,1-2-.58A8.48,8.48,0,0,1,578.83,219.91Z" transform="translate(-287.81 -142.43)"/><path class="cls-42" d="M548.48,215.31a8,8,0,0,1,2,.59,8.09,8.09,0,0,1,1.77,1,9.08,9.08,0,0,1-3.73-1.62Z" transform="translate(-287.81 -142.43)"/><path class="cls-42" d="M550.71,214.93c-.88-.29-1.74-.63-2.61-.9-.21-.07-.43-.13-.64-.18a.81.81,0,0,0-.25,0c.16-.15,0,.06,0,.14a.58.58,0,0,0,0,.48,1.26,1.26,0,0,0,.38.43.22.22,0,0,1,0,.32l0,0h0a.91.91,0,0,0-.34.65c0,.2.27.4.53.58.53.35,1.1.67,1.66,1a9.44,9.44,0,0,1-1.82-.72,3,3,0,0,1-.44-.28.81.81,0,0,1-.33-.5,1.25,1.25,0,0,1,.44-1.06v.35a1.62,1.62,0,0,1-.52-.6,1,1,0,0,1,0-.86l.08-.16s0,0,.06-.11a.37.37,0,0,1,.22-.13,1.05,1.05,0,0,1,.43.05,4.94,4.94,0,0,1,.68.23A16.92,16.92,0,0,1,550.71,214.93Z" transform="translate(-287.81 -142.43)"/><path class="cls-42" d="M555.06,212.75a1.55,1.55,0,0,1,.73-.28.44.44,0,0,1,.27,0l.09.06,0,0,.07.07.23.29a4,4,0,0,1,.71,1.34,4.29,4.29,0,0,1-1.05-1l-.21-.3,0-.08,0,0h0l-.09,0C555.57,212.79,555.32,212.79,555.06,212.75Z" transform="translate(-287.81 -142.43)"/><path class="cls-34" d="M553.55,155.86c.57-2,5.14-4.47,10.11-4.46s9.54,2.48,10.12,4.43a21.52,21.52,0,0,1,.42,4.7,4.47,4.47,0,0,1,1.92-.67c3.16-.45,3,10.9-2.38,7.57a16.36,16.36,0,0,1-2.22,6.58,10.59,10.59,0,0,1-3.43,3.25,7.23,7.23,0,0,1-3.92,1.06h-.95a7.57,7.57,0,0,1-4.73-1.56,11.65,11.65,0,0,1-2.64-2.72,13.62,13.62,0,0,1-1.79-4.36C552.76,164.41,553.06,157.54,553.55,155.86Z" transform="translate(-287.81 -142.43)"/><path class="cls-43" d="M565.26,173a7.1,7.1,0,0,0,2.83,4.22,10.59,10.59,0,0,0,3.43-3.25,17,17,0,0,0,2.29-7,5.77,5.77,0,0,0-8.55,6.07Z" transform="translate(-287.81 -142.43)"/><path class="cls-43" d="M554.06,169.68a13.62,13.62,0,0,0,1.79,4.36,11.65,11.65,0,0,0,2.64,2.72,5.55,5.55,0,0,0,.09-2.47A5.78,5.78,0,0,0,554.06,169.68Z" transform="translate(-287.81 -142.43)"/><path class="cls-38" d="M576.94,164.66a2.81,2.81,0,0,0,0-1,2.12,2.12,0,0,0-.26-.86.87.87,0,0,0-1.37,0,3.13,3.13,0,0,0-.92,1.53,6.26,6.26,0,0,0,0,1.89,4,4,0,0,1-.33-2,3.26,3.26,0,0,1,1-1.82,1.57,1.57,0,0,1,1-.4,1.06,1.06,0,0,1,1,.59,2.09,2.09,0,0,1,.18,1A2.5,2.5,0,0,1,576.94,164.66Z" transform="translate(-287.81 -142.43)"/><path class="cls-38" d="M575.58,166.21a2.76,2.76,0,0,0,.1-.84,3.52,3.52,0,0,0-.13-.8,1.33,1.33,0,0,0-.33-.66.85.85,0,0,0-.73-.24.78.78,0,0,1,.94,0,1.42,1.42,0,0,1,.58.83,2.53,2.53,0,0,1,0,1A1.3,1.3,0,0,1,575.58,166.21Z" transform="translate(-287.81 -142.43)"/><path class="cls-38" d="M565.66,170.47a1.43,1.43,0,0,1-1.25.89C564.84,171,565.2,170.77,565.66,170.47Z" transform="translate(-287.81 -142.43)"/><path class="cls-38" d="M565.89,168.35a3.35,3.35,0,0,1-1.2,2.1,3.52,3.52,0,0,1-1.09.6,2.93,2.93,0,0,1-1.21.13,9.57,9.57,0,0,0,1.07-.47,4.23,4.23,0,0,0,.93-.63A7.42,7.42,0,0,0,565.89,168.35Z" transform="translate(-287.81 -142.43)"/><path class="cls-38" d="M559.74,163.17a6.08,6.08,0,0,1,.56,3.52,3.62,3.62,0,0,0,0,1.64,2.06,2.06,0,0,0,1.16,1.14,1.87,1.87,0,0,1-1.5-1,3.53,3.53,0,0,1-.14-1.84A11.19,11.19,0,0,0,559.74,163.17Z" transform="translate(-287.81 -142.43)"/><path class="cls-38" d="M563.11,168.76a.64.64,0,0,1-.14.42.6.6,0,0,1-.43.11.47.47,0,0,1,.1-.46A.49.49,0,0,1,563.11,168.76Z" transform="translate(-287.81 -142.43)"/><path class="cls-44" d="M563.34,165.13c.13.67.64,1.14,1.14,1.05a1.12,1.12,0,0,0,.68-1.39c-.12-.67-.63-1.14-1.13-1A1.13,1.13,0,0,0,563.34,165.13Z" transform="translate(-287.81 -142.43)"/><path class="cls-44" d="M562.73,163.83a.78.78,0,0,0,.25.09,1.82,1.82,0,0,0,.33,0,3.48,3.48,0,0,0,.69-.17.38.38,0,0,1,.48.24.38.38,0,0,1-.24.48h-.12a3.4,3.4,0,0,1-.84-.06,1.8,1.8,0,0,1-.43-.14.74.74,0,0,1-.37-.34.13.13,0,0,1,.06-.16.11.11,0,0,1,.11,0Z" transform="translate(-287.81 -142.43)"/><path class="cls-44" d="M556.51,166.4c.12.67.63,1.14,1.13,1a1.13,1.13,0,0,0,.69-1.39c-.13-.67-.64-1.14-1.14-1A1.1,1.1,0,0,0,556.51,166.4Z" transform="translate(-287.81 -142.43)"/><path class="cls-44" d="M555.9,165.1a.71.71,0,0,0,.24.09h.34a3.65,3.65,0,0,0,.69-.17.38.38,0,0,1,.23.72l-.11,0a4.12,4.12,0,0,1-.85-.07,1.73,1.73,0,0,1-.42-.14.7.7,0,0,1-.37-.34.12.12,0,0,1,.06-.16.11.11,0,0,1,.11,0Z" transform="translate(-287.81 -142.43)"/><path class="cls-44" d="M562.32,161.66a8.73,8.73,0,0,1,1-.22,7.47,7.47,0,0,1,1.06-.11,7.68,7.68,0,0,1,1.07.06,8.27,8.27,0,0,1,1.08.22h0a.24.24,0,0,0,.18-.44,5.32,5.32,0,0,0-1.1-.53,5.07,5.07,0,0,0-1.22-.24,4.77,4.77,0,0,0-1.25,0,4.55,4.55,0,0,0-1.22.39.46.46,0,0,0-.2.61.45.45,0,0,0,.53.23Z" transform="translate(-287.81 -142.43)"/><path class="cls-44" d="M561.37,161a.57.57,0,0,0,.25.49,1.12,1.12,0,0,0,.52.18h0a.25.25,0,1,0,.05-.49h-.09a.7.7,0,0,1-.35,0,.27.27,0,0,1-.14-.07.36.36,0,0,1-.1-.14v0a.08.08,0,0,0-.1,0A.07.07,0,0,0,561.37,161Z" transform="translate(-287.81 -142.43)"/><path class="cls-44" d="M557.76,162.51a7.62,7.62,0,0,0-1,.15,9.22,9.22,0,0,0-1,.28,7.75,7.75,0,0,0-1,.44,10.33,10.33,0,0,0-.92.6h0a.23.23,0,0,1-.33-.06.24.24,0,0,1,0-.28,4.7,4.7,0,0,1,.84-.89,5.13,5.13,0,0,1,1-.67,4.85,4.85,0,0,1,1.18-.41,4.47,4.47,0,0,1,1.28-.09.47.47,0,0,1,.41.51.46.46,0,0,1-.41.4Z" transform="translate(-287.81 -142.43)"/><path class="cls-44" d="M558.41,161.57a.55.55,0,0,1-.06.55,1,1,0,0,1-.42.35h0a.24.24,0,0,1-.33-.1.25.25,0,0,1,.11-.33l.08,0a.85.85,0,0,0,.34-.11.43.43,0,0,0,.11-.12.29.29,0,0,0,0-.16v0a.08.08,0,0,1,.07-.08A.08.08,0,0,1,558.41,161.57Z" transform="translate(-287.81 -142.43)"/><path class="cls-44" d="M581.16,177.62a41.13,41.13,0,0,1-5.54,1.51l-1.77-9.5-.25-1.36v0c.06-.27.1-.54.14-.81,3.24,2,4.59-1.34,4.45-4.21-.08-1.87-.81-3.54-2.06-3.36a5,5,0,0,0-1.59.47L572.78,165l-1.1-2.46a12.91,12.91,0,0,1-12.74-5.56c-3.35,1.75-5,5.89-5.62,8.12.07.67.14,1.35.25,2a26,26,0,0,0,.5,2.6,13.49,13.49,0,0,0,1.78,4.36,11.48,11.48,0,0,0,2.65,2.72,7.63,7.63,0,0,0,4.73,1.57h.94a5.88,5.88,0,0,0,.84,0l.36,1.88.24,1.27-1.3.17a27.84,27.84,0,0,1-9.71-.71,44,44,0,0,1-3.73-15.12,42.33,42.33,0,0,1,0-4.91,12.28,12.28,0,0,1,1.7-6.45,10.3,10.3,0,0,1,5.38-3.66c5.71-1.9,10.6-1.76,15.89,3,.83.74,3.26,1.37,3.81,2.33a13,13,0,0,1,1.2,3.09c.28,1,.53,2,.74,2.95A61.65,61.65,0,0,1,581.16,177.62Z" transform="translate(-287.81 -142.43)"/><path class="cls-45" d="M565.37,180.18l.24,1.27-1.3.17a27.84,27.84,0,0,1-9.71-.71,44,44,0,0,1-3.73-15.12,19.64,19.64,0,0,0,2.7,1.29,26,26,0,0,0,.5,2.6,13.49,13.49,0,0,0,1.78,4.36,11.48,11.48,0,0,0,2.65,2.72,7.63,7.63,0,0,0,4.73,1.57h.94a5.88,5.88,0,0,0,.84,0Z" transform="translate(-287.81 -142.43)"/><path class="cls-45" d="M581.16,177.62a41.13,41.13,0,0,1-5.54,1.51l-1.77-9.5-.25-1.36v0c.06-.27.1-.54.14-.81,3.24,2,4.59-1.34,4.45-4.21.47-.34.93-.71,1.37-1.09A61.65,61.65,0,0,1,581.16,177.62Z" transform="translate(-287.81 -142.43)"/></g></g></svg>